# File created by Blade
# Date/Time:  Tue Jan 27 18:09:18 2015
#---------------------------------------------------------
:version 1.10
:name HOM
:units
  mass 1.0
  length 1.000000
  angle deg
:documentation
     Acclaim Skeleton File
:root
   axis xyz
   order TX TY TZ RX RY RZ
   position 0.000000 0.000000 0.000000
   orientation 0 0 0
:bonedata
   begin
      id 1
      name Spine_dum
      direction 0.000000 1.000000 0.000000
      length 5.195262
      axis 0.0 0.0 0.0 xyz
   end
   begin
      id 2
      name LeftUpLeg_dum
      direction 1.000000 0.000000 0.000000
      length 3.351363
      axis 0.0 0.0 0.0 xyz
   end
   begin
      id 3
      name RightUpLeg_dum
      direction -1.000000 0.000000 0.000000
      length 3.351363
      axis 0.0 0.0 0.0 xyz
   end
   begin
      id 4
      name Spine
      direction 0.000000 1.000000 0.000000
      length 0.000000
      axis 0.0 0.0 0.0 xyz
      dof rx ry rz
   end
   begin
      id 5
      name Spine_dum1
      direction 0.000000 1.000000 0.000000
      length 15.653875
      axis 0.0 0.0 0.0 xyz
   end
   begin
      id 6
      name Spine_dum2
      direction 0.000000 1.000000 0.000000
      length 10.329768
      axis 0.0 0.0 0.0 xyz
   end
   begin
      id 7
      name Spine_dum3
      direction 0.000000 1.000000 0.000000
      length 10.329768
      axis 0.0 0.0 0.0 xyz
   end
   begin
      id 8
      name Head
      direction 0.000000 1.000000 0.000000
      length 4.527550
      axis 0.0 0.0 0.0 xyz
      dof rx ry rz
   end
   begin
      id 9
      name LeftShoulder
      direction 1.000000 0.000000 0.000000
      length 6.996006
      axis 0.0 0.0 -90.0 xyz
      dof rx ry rz
   end
   begin
      id 10
      name LeftArm
      direction 1.000000 0.000000 0.000000
      length 10.209302
      axis 0.0 0.0 -90.0 xyz
      dof rx ry rz
   end
   begin
      id 11
      name LeftForeArm
      direction 1.000000 0.000000 0.000000
      length 8.563163
      axis 0.0 0.0 -90.0 xyz
      dof ry rz rx
   end
   begin
      id 12
      name LeftHand
      direction 0.000000 0.000000 0.000000
      length 0.000000
      axis 0.0 0.0 -90.0 xyz
      dof rx ry rz
   end
   begin
      id 13
      name LeftHand_dum1
      direction 0.000000 0.000000 0.000000
      length 0.000000
      axis 0.0 0.0 -90.0 xyz
   end
   begin
      id 14
      name LeftHand_dum2
      direction 1.000000 0.000000 0.000000
      length 3.937000
      axis 0.0 0.0 -90.0 xyz
   end
   begin
      id 15
      name LeftHandThumb1
      direction 0.000000 0.000000 1.000000
      length 3.937000
      axis 0.0 0.0 -90.0 xyz
      dof rx rz ry
   end
   begin
      id 16
      name RightShoulder
      direction -1.000000 0.000000 0.000000
      length 6.996006
      axis 0.0 0.0 90.0 xyz
      dof rx ry rz
   end
   begin
      id 17
      name RightArm
      direction -1.000000 0.000000 0.000000
      length 10.209302
      axis 0.0 0.0 90.0 xyz
      dof rx ry rz
   end
   begin
      id 18
      name RightForeArm
      direction -1.000000 0.000000 0.000000
      length 8.563163
      axis 0.0 0.0 90.0 xyz
      dof ry rz rx
   end
   begin
      id 19
      name RightHand
      direction 0.000000 0.000000 0.000000
      length 0.000000
      axis 0.0 0.0 90.0 xyz
      dof rx ry rz
   end
   begin
      id 20
      name RightHand_dum1
      direction 0.000000 0.000000 0.000000
      length 0.000000
      axis 0.0 0.0 90.0 xyz
   end
   begin
      id 21
      name RightHand_dum2
      direction -1.000000 0.000000 0.000000
      length 3.937000
      axis 0.0 0.0 90.0 xyz
   end
   begin
      id 22
      name RightHandThumb1
      direction 0.000000 0.000000 1.000000
      length 3.937000
      axis 0.0 0.0 90.0 xyz
      dof rx rz ry
   end
   begin
      id 23
      name LeftUpLeg
      direction 0.000000 -1.000000 0.000000
      length 16.346831
      axis 0.0 0.0 0.0 xyz
      dof rx ry rz
   end
   begin
      id 24
      name LeftLeg
      direction 0.000000 -1.000000 0.000000
      length 13.959795
      axis 0.0 0.0 0.0 xyz
      dof rx ry rz
   end
   begin
      id 25
      name LeftFoot
      direction 0.000000 -0.258819 0.965926
      length 5.165550
      axis 15.0 0.0 0.0 xyz
      dof rx ry rz
   end
   begin
      id 26
      name LeftToeBase
      direction 0.000000 0.000000 1.000000
      length 2.952750
      axis 0.0 0.0 0.0 xyz
      dof rx ry rz
   end
   begin
      id 27
      name RightUpLeg
      direction 0.000000 -1.000000 0.000000
      length 16.346831
      axis 0.0 0.0 0.0 xyz
      dof rx ry rz
   end
   begin
      id 28
      name RightLeg
      direction 0.000000 -1.000000 0.000000
      length 13.959795
      axis 0.0 0.0 0.0 xyz
      dof rx ry rz
   end
   begin
      id 29
      name RightFoot
      direction 0.000000 -0.258819 0.965926
      length 5.165550
      axis 15.0 0.0 0.0 xyz
      dof rx ry rz
   end
   begin
      id 30
      name RightToeBase
      direction 0.000000 0.000000 1.000000
      length 2.952750
      axis 0.0 0.0 0.0 xyz
      dof rx ry rz
   end
:hierarchy
   begin
      root Spine_dum LeftUpLeg_dum RightUpLeg_dum
      Spine_dum Spine
      LeftUpLeg_dum LeftUpLeg
      RightUpLeg_dum RightUpLeg
      Spine Spine_dum1 Spine_dum2 Spine_dum3
      Spine_dum1 Head
      Spine_dum2 LeftShoulder
      Spine_dum3 RightShoulder
      LeftShoulder LeftArm
      LeftArm LeftForeArm
      LeftForeArm LeftHand
      LeftHand LeftHand_dum1 LeftHand_dum2
      LeftHand_dum1 LeftHandThumb1
      RightShoulder RightArm
      RightArm RightForeArm
      RightForeArm RightHand
      RightHand RightHand_dum1 RightHand_dum2
      RightHand_dum1 RightHandThumb1
      LeftUpLeg LeftLeg
      LeftLeg LeftFoot
      LeftFoot LeftToeBase
      RightUpLeg RightLeg
      RightLeg RightFoot
      RightFoot RightToeBase
   end

# File created by Blade
# Date/Time:  Tue Jan 27 18:09:10 2015
# Frame Rate: 120.000 fps
#------------------------------------------------------
:FULLY-SPECIFIED
:DEGREES
1669
root -1.218410 31.872932 -6.863560 5.863778 11.225077 3.669397
Spine -7.873361 -4.184965 -4.344774
Head -0.819715 -28.621318 8.436919
LeftShoulder -9.722438 16.561982 5.127289
LeftArm 27.879348 43.659362 -65.857389
LeftForeArm -2.947449 0.000000 15.785316
LeftHand -10.638453 -0.000000 -5.223573
LeftHandThumb1 -26.253704 0.000000 33.147579
RightShoulder 0.368005 19.416131 -29.081190
RightArm 40.252594 51.801039 76.400581
RightForeArm 7.364480 -0.000000 103.322287
RightHand -11.148513 -0.000000 -3.438661
RightHandThumb1 -24.326973 -0.000000 -32.862282
LeftUpLeg -2.577066 -3.515273 -1.474228
LeftLeg 1.442450 -0.000000 -0.000000
LeftFoot -16.756410 15.532439 -24.126781
LeftToeBase 8.679913 -0.000000 -0.000000
RightUpLeg 1.545827 -7.486891 -4.169112
RightLeg -3.335625 -0.000000 0.000000
RightFoot -15.311876 -14.706681 10.318713
RightToeBase 5.089950 -0.000000 -0.000000
1670
root -1.218692 31.872912 -6.862919 5.849705 11.289485 3.678613
Spine -7.874290 -4.165468 -4.316113
Head -0.732987 -28.406412 8.292792
LeftShoulder -9.745470 16.585510 5.096785
LeftArm 27.839080 43.630242 -65.862040
LeftForeArm -2.934550 0.000000 15.805631
LeftHand -10.727320 -0.000000 -5.274731
LeftHandThumb1 -26.253704 0.000000 33.147579
RightShoulder 0.360352 19.407531 -29.087952
RightArm 40.169765 51.875263 76.324282
RightForeArm 7.313279 0.000000 103.694119
RightHand -11.108955 -0.000000 -3.644848
RightHandThumb1 -24.326973 -0.000000 -32.862282
LeftUpLeg -2.571349 -3.532885 -1.480012
LeftLeg 1.447497 -0.000000 -0.000000
LeftFoot -16.720108 15.515328 -24.081702
LeftToeBase 8.643065 -0.000000 -0.000000
RightUpLeg 1.570992 -7.505164 -4.172363
RightLeg -3.330099 -0.000000 0.000000
RightFoot -15.344879 -14.747087 10.356320
RightToeBase 5.118674 -0.000000 -0.000000
1671
root -1.219992 31.872936 -6.863251 5.834356 11.354173 3.684992
Spine -7.869892 -4.153889 -4.292285
Head -0.638593 -28.223590 8.130034
LeftShoulder -9.737911 16.590319 5.080340
LeftArm 27.738186 43.549513 -65.933145
LeftForeArm -2.906297 -0.000000 15.801451
LeftHand -10.670974 -0.000000 -5.405729
LeftHandThumb1 -26.253704 0.000000 33.147579
RightShoulder 0.348739 19.406158 -29.066263
RightArm 40.068963 51.929755 76.190092
RightForeArm 7.366814 -0.000000 104.053514
RightHand -11.151855 0.000000 -3.685539
RightHandThumb1 -24.326973 -0.000000 -32.862282
LeftUpLeg -2.567602 -3.570054 -1.476896
LeftLeg 1.466579 -0.000000 -0.000000
LeftFoot -16.723188 15.466071 -24.106292
LeftToeBase 8.676938 -0.000000 -0.000000
RightUpLeg 1.590767 -7.517111 -4.172791
RightLeg -3.312795 -0.000000 0.000000
RightFoot -15.367909 -14.796680 10.357204
RightToeBase 5.127051 -0.000000 -0.000000
1672
root -1.220642 31.873357 -6.865164 5.828011 11.411949 3.694167
Spine -7.872564 -4.139954 -4.266656
Head -0.545718 -27.992742 7.984844
LeftShoulder -9.741202 16.622032 5.069850
LeftArm 27.695483 43.498579 -65.976418
LeftForeArm -2.868003 0.000000 15.780521
LeftHand -10.769942 -0.000000 -6.048181
LeftHandThumb1 -26.253704 0.000000 33.147579
RightShoulder 0.360164 19.420620 -29.038984
RightArm 39.934504 51.993093 76.017324
RightForeArm 7.419521 -0.000000 104.437312
RightHand -11.073105 -0.000000 -3.707407
RightHandThumb1 -24.326973 -0.000000 -32.862282
LeftUpLeg -2.574883 -3.606389 -1.479661
LeftLeg 1.482152 -0.000000 -0.000000
LeftFoot -16.709801 15.443195 -24.107949
LeftToeBase 8.689682 -0.000000 -0.000000
RightUpLeg 1.595406 -7.533708 -4.176663
RightLeg -3.290427 -0.000000 0.000000
RightFoot -15.387688 -14.836189 10.365624
RightToeBase 5.089939 -0.000000 -0.000000
1673
root -1.221319 31.873434 -6.866987 5.821120 11.472463 3.705977
Spine -7.869764 -4.124861 -4.244924
Head -0.461573 -27.799545 7.818396
LeftShoulder -9.756148 16.636355 5.039140
LeftArm 27.682709 43.504730 -65.949769
LeftForeArm -2.866967 -0.000000 15.770272
LeftHand -10.699883 0.000000 -5.417627
LeftHandThumb1 -26.253704 0.000000 33.147579
RightShoulder 0.349062 19.419802 -29.027687
RightArm 39.862737 52.072209 75.923522
RightForeArm 7.502769 -0.000000 104.834595
RightHand -11.047295 -0.000000 -3.554120
RightHandThumb1 -24.326973 -0.000000 -32.862282
LeftUpLeg -2.582835 -3.640739 -1.486391
LeftLeg 1.498084 -0.000000 -0.000000
LeftFoot -16.699271 15.425309 -24.107799
LeftToeBase 8.650080 -0.000000 -0.000000
RightUpLeg 1.605928 -7.527151 -4.183062
RightLeg -3.274083 -0.000000 0.000000
RightFoot -15.423411 -14.898482 10.395033
RightToeBase 5.108705 -0.000000 -0.000000
1674
root -1.222541 31.873711 -6.869365 5.815073 11.538171 3.717028
Spine -7.867347 -4.129352 -4.213895
Head -0.372191 -27.574145 7.670532
LeftShoulder -9.767647 16.656576 5.007854
LeftArm 27.663038 43.507043 -65.933569
LeftForeArm -2.861388 -0.000000 15.768081
LeftHand -10.670437 -0.000000 -5.337881
LeftHandThumb1 -26.253704 0.000000 33.147579
RightShoulder 0.344579 19.394674 -29.033600
RightArm 39.852755 52.132841 75.903847
RightForeArm 7.598841 -0.000000 105.237579
RightHand -11.081239 -0.000000 -3.648521
RightHandThumb1 -24.326973 -0.000000 -32.862282
LeftUpLeg -2.585687 -3.710786 -1.488328
LeftLeg 1.492882 -0.000000 -0.000000
LeftFoot -16.674283 15.441826 -24.097884
LeftToeBase 8.614080 -0.000000 -0.000000
RightUpLeg 1.613848 -7.547034 -4.187945
RightLeg -3.257490 -0.000000 0.000000
RightFoot -15.441985 -14.931742 10.408179
RightToeBase 5.118720 -0.000000 -0.000000
1675
root -1.223889 31.873762 -6.870996 5.801540 11.605871 3.725095
Spine -7.860008 -4.149389 -4.182556
Head -0.271614 -27.371746 7.502946
LeftShoulder -9.788781 16.687194 4.987571
LeftArm 27.655053 43.487766 -65.941447
LeftForeArm -2.840631 0.000000 15.724040
LeftHand -10.568540 -0.000000 -5.309759
LeftHandThumb1 -26.253704 0.000000 33.147579
RightShoulder 0.366129 19.407191 -29.019016
RightArm 39.825170 52.230124 75.877657
RightForeArm 7.631632 -0.000000 105.666868
RightHand -10.991797 -0.000000 -3.508951
RightHandThumb1 -24.326973 -0.000000 -32.862282
LeftUpLeg -2.590098 -3.755251 -1.487245
LeftLeg 1.523273 -0.000000 -0.000000
LeftFoot -16.671048 15.400888 -24.106236
LeftToeBase 8.599528 -0.000000 -0.000000
RightUpLeg 1.628920 -7.558906 -4.191707
RightLeg -3.234463 -0.000000 0.000000
RightFoot -15.475385 -14.982475 10.420349
RightToeBase 5.091798 -0.000000 -0.000000
1676
root -1.225373 31.873867 -6.874296 5.787724 11.675751 3.737297
Spine -7.841283 -4.152264 -4.158897
Head -0.188628 -27.167411 7.336965
LeftShoulder -9.794696 16.700254 4.970716
LeftArm 27.638664 43.470691 -65.951381
LeftForeArm -2.881851 -0.000000 15.701266
LeftHand -10.599258 0.000000 -5.299003
LeftHandThumb1 -26.253704 0.000000 33.147579
RightShoulder 0.356332 19.361207 -29.011494
RightArm 39.910346 52.329746 75.948693
RightForeArm 7.659076 -0.000000 106.128937
RightHand -11.001904 0.000000 -3.474165
RightHandThumb1 -24.326973 -0.000000 -32.862282
LeftUpLeg -2.603682 -3.792224 -1.490567
LeftLeg 1.560211 -0.000000 -0.000000
LeftFoot -16.670503 15.358539 -24.121154
LeftToeBase 8.631376 -0.000000 -0.000000
RightUpLeg 1.641358 -7.583146 -4.197171
RightLeg -3.210756 -0.000000 0.000000
RightFoot -15.507675 -15.029411 10.433335
RightToeBase 5.125568 -0.000000 -0.000000
1677
root -1.227453 31.873928 -6.876608 5.771309 11.739464 3.749646
Spine -7.823021 -4.163700 -4.139864
Head -0.095410 -26.941136 7.173162
LeftShoulder -9.795282 16.671817 4.973447
LeftArm 27.535135 43.436215 -66.042269
LeftForeArm -2.887539 -0.000000 15.677080
LeftHand -10.618724 0.000000 -5.310125
LeftHandThumb1 -26.253704 0.000000 33.147579
RightShoulder 0.364675 19.343023 -28.984770
RightArm 40.000288 52.453091 76.041667
RightForeArm 7.699102 -0.000000 106.585464
RightHand -10.933811 -0.000000 -3.260678
RightHandThumb1 -24.326973 -0.000000 -32.862282
LeftUpLeg -2.603219 -3.823503 -1.494977
LeftLeg 1.577134 -0.000000 -0.000000
LeftFoot -16.651435 15.328352 -24.126324
LeftToeBase 8.625393 -0.000000 -0.000000
RightUpLeg 1.659145 -7.597856 -4.202255
RightLeg -3.191911 -0.000000 0.000000
RightFoot -15.532579 -15.069492 10.437556
RightToeBase 5.133701 -0.000000 -0.000000
